<svg width="91" height="90" viewBox="0 0 91 90" fill="none" xmlns="http://www.w3.org/2000/svg">
<path fill-rule="evenodd" clip-rule="evenodd" d="M23 7.5V54.75C23 59.7206 27.0294 63.75 32 63.75H59C63.9706 63.75 68 59.7206 68 54.75V7.5H23Z" stroke="white" stroke-width="4" stroke-linecap="round"/>
<path d="M26.75 78.75H64.25" stroke="white" stroke-width="4" stroke-linecap="round"/>
<path d="M45.5 63.75V78.75" stroke="white" stroke-width="4"/>
<path fill-rule="evenodd" clip-rule="evenodd" d="M23 18.75H17C12.0294 18.75 8 22.7794 8 27.75V32.25C8 37.2206 12.0294 41.25 17 41.25H23L23 18.75Z" stroke="white" stroke-width="4" stroke-linecap="round"/>
<path fill-rule="evenodd" clip-rule="evenodd" d="M68 41.25H74C78.9706 41.25 83 37.2206 83 32.25V27.75C83 22.7794 78.9706 18.75 74 18.75H68V41.25Z" stroke="white" stroke-width="4" stroke-linecap="round"/>
</svg>
