<svg width="91" height="90" viewBox="0 0 91 90" fill="none" xmlns="http://www.w3.org/2000/svg">
<path d="M34.25 15C34.25 10.8579 37.6079 7.5 41.75 7.5C45.8921 7.5 49.25 10.8579 49.25 15V22.5H68V41.25H75.5C79.6421 41.25 83 44.6079 83 48.75C83 52.8921 79.6421 56.25 75.5 56.25H68V75H49.25V67.5C49.25 63.3579 45.8921 60 41.75 60C37.6079 60 34.25 63.3579 34.25 67.5V75H15.5V56.25H23C27.1421 56.25 30.5 52.8921 30.5 48.75C30.5 44.6079 27.1421 41.25 23 41.25H15.5V22.5H34.25V15Z" stroke="white" stroke-width="4"/>
</svg>
