<svg width="91" height="90" viewBox="0 0 91 90" fill="none" xmlns="http://www.w3.org/2000/svg">
<path fill-rule="evenodd" clip-rule="evenodd" d="M45.5 82.5C66.2107 82.5 83 65.7107 83 45C83 24.2893 66.2107 7.5 45.5 7.5C24.7893 7.5 8 24.2893 8 45C8 65.7107 24.7893 82.5 45.5 82.5Z" stroke="white" stroke-width="4"/>
<path fill-rule="evenodd" clip-rule="evenodd" d="M45.5 78.75C45.5 78.75 60.5 66.4773 60.5 45C60.5 23.5227 45.5 11.25 45.5 11.25C45.5 11.25 30.5 23.5227 30.5 45C30.5 66.4773 45.5 78.75 45.5 78.75Z" stroke="white" stroke-width="4"/>
<path d="M9.875 33.75H81.125" stroke="white" stroke-width="4" stroke-linecap="round"/>
<path d="M9.875 56.25H81.125" stroke="white" stroke-width="4" stroke-linecap="round"/>
</svg>
